<svg id="Layer_1" data-name="Layer 1" xmlns="http://www.w3.org/2000/svg" viewBox="0 0 494.95 175.16"><defs><style>.cls-1{fill:#bdc9d2;}.cls-2{fill:#fff;}</style></defs><title>ph-logo</title><path class="cls-1" d="M154.26,79.47a33,33,0,0,1,9,1.37c.11-7.21-1.26-10.07-7.1-10.07a48.68,48.68,0,0,0-12.82,2.06c-1.37.34-2.17-.57-2.52-1.83l-.92-4.24a2.06,2.06,0,0,1,1.49-2.63,47.23,47.23,0,0,1,15.8-2.63c14.65,0,16,8.93,16,20.38v24.38a2.25,2.25,0,0,1-2.18,2.18h-3.21c-1,0-1.49-.46-1.95-1.6l-1.14-3.09a19.76,19.76,0,0,1-14.08,5.84c-8.59,0-14.77-5.84-14.77-15.34C135.94,85.88,142.58,79.47,154.26,79.47Zm-1.37,22c4.58,0,8.93-3.44,10.3-5.72V88.4a17.23,17.23,0,0,0-8-1.83c-5.49,0-9.27,2.86-9.27,7.56C145.9,98.25,148.65,101.46,152.89,101.46Z"/><path class="cls-1" d="M208.29,61.5a20.29,20.29,0,0,1,16.6,8.13,2.24,2.24,0,0,1-.46,3.21l-3.78,3.44c-1.37,1.26-2.17.34-3.09-.46a12.73,12.73,0,0,0-9.16-4.35c-7.44,0-13.28,6.3-13.28,14.08s5.72,14.2,13.17,14.2c5.84,0,8.24-3,10.65-5.27a2.09,2.09,0,0,1,3.09-.23l3.09,2.52c1.15.92,1.6,2.06.8,3.21a20.31,20.31,0,0,1-17.75,9.62,23.84,23.84,0,0,1-23.93-23.93A24.36,24.36,0,0,1,208.29,61.5Z"/><path class="cls-1" d="M237.37,64.82a2.25,2.25,0,0,1,2.17-2.18h3.21A2,2,0,0,1,244.7,64L246,67.91a21.26,21.26,0,0,1,15.11-6.41c6.64,0,11.45,2.63,14.77,7.33,1.26-1.26,7.9-7.33,16.6-7.33,14,0,18.89,9.85,18.89,21.75v23a2.17,2.17,0,0,1-2.17,2.18h-6.41a2.17,2.17,0,0,1-2.17-2.18V82.79c0-7.21-3.32-11.34-9.5-11.34-7,0-11,4.92-11.79,5.61a32,32,0,0,1,.34,5.5v23.7a2.25,2.25,0,0,1-2.17,2.18h-6.07a2.17,2.17,0,0,1-2.18-2.18V82.79c0-7.33-3.32-11.34-9.73-11.34a13,13,0,0,0-11.33,6.87v27.93a2.25,2.25,0,0,1-2.18,2.18h-6.41a2.25,2.25,0,0,1-2.17-2.18Z"/><path class="cls-1" d="M345.21,61.5c11.91,0,21.06,8.93,21.06,21.18a28,28,0,0,1-.23,3.09A2.1,2.1,0,0,1,364,87.72H332.85A13.26,13.26,0,0,0,346,100a19.53,19.53,0,0,0,10.19-3.32c1.37-.8,2.18-1.26,3.09-.11l3.21,4.35c.8.92,1.14,1.83-.23,3a26.31,26.31,0,0,1-16.94,5.72c-13.85,0-23-10.88-23-24C322.32,72.6,331.48,61.5,345.21,61.5Zm10.42,19A10.83,10.83,0,0,0,345.1,70.32,11.58,11.58,0,0,0,333.42,80.5Z"/><path class="cls-1" d="M423.06,61.5a20.29,20.29,0,0,1,16.6,8.13,2.24,2.24,0,0,1-.46,3.21l-3.78,3.44c-1.37,1.26-2.17.34-3.09-.46a12.73,12.73,0,0,0-9.16-4.35c-7.44,0-13.28,6.3-13.28,14.08s5.72,14.2,13.17,14.2c5.84,0,8.24-3,10.65-5.27a2.09,2.09,0,0,1,3.09-.23l3.09,2.52c1.15.92,1.6,2.06.8,3.21a20.31,20.31,0,0,1-17.75,9.62A23.84,23.84,0,0,1,399,85.66,24.36,24.36,0,0,1,423.06,61.5Z"/><path class="cls-1" d="M471.83,61.5c12.82,0,23.13,11,23.13,23.93,0,13.17-10.3,24.16-23.13,24.16s-23.13-11-23.13-24.16C448.7,72.49,459,61.5,471.83,61.5Zm0,38.24c7.21,0,12.94-6.41,12.94-14.31,0-7.67-5.72-14-12.94-14s-12.94,6.3-12.94,14C458.89,93.33,464.61,99.74,471.83,99.74Z"/><path class="cls-2" d="M71.07,110.31S81.62,34.44,46.69,6L44.8.84a1.28,1.28,0,0,0-2.39,0L40.35,5.94C6,33.55,18.1,109.7,18.1,109.7c-26.53,20.85-20.07,13-4.94,49.8,2.88,7,7.94,5.37,10.23.3l7.34-16.24h2.4l9.27,29.61a2.85,2.85,0,0,0,5.43,0l9.27-29.61h2.2s5.48,11.63,7.89,16.74,7.5,6.89,10.23-.07C91.7,123.81,98.08,131.77,71.07,110.31ZM44.15,85.54A12.36,12.36,0,0,1,32,73.38,11.69,11.69,0,0,1,43.87,61.51,12.35,12.35,0,0,1,56,73.66,11.69,11.69,0,0,1,44.15,85.54Z"/></svg>