<?xml version="1.0" encoding="utf-8"?>
<!-- Generator: Adobe Illustrator 21.0.2, SVG Export Plug-In . SVG Version: 6.00 Build 0)  -->
<svg version="1.1" id="Layer_1" xmlns="http://www.w3.org/2000/svg" xmlns:xlink="http://www.w3.org/1999/xlink" x="0px" y="0px"
	 viewBox="0 0 52 26" style="enable-background:new 0 0 52 26;" xml:space="preserve">
<style type="text/css">
	.st0{opacity:0.46;}
</style>
<g class="st0">
	<g>
		<path d="M10,10c0-2.2-1.8-4-4-4C2.7,6,0,3.3,0,0h2c0,2.2,1.8,4,4,4c3.3,0,6,2.7,6,6c0,2.2,1.8,4,4,4c3.3,0,6,2.7,6,6
			c0,2.2,1.8,4,4,4v2c-3.3,0-6-2.7-6-6c0-2.2-1.8-4-4-4C12.7,16,10,13.3,10,10z M35.5,8.1l8.5,8.5l-1.4,1.4L34,9.5
			C34,9.5,35.5,8,35.5,8.1z"/>
	</g>
</g>
</svg>
